<svg width="121" height="28" viewBox="0 0 121 28" fill="none" xmlns="http://www.w3.org/2000/svg">
<path d="M17.0889 23C17.6506 23 18.1059 22.5524 18.1059 22.0002V16.6514C18.1059 16.1945 18.4273 15.8076 18.8453 15.6107C20.6321 14.7728 21.5459 12.7921 21.01 10.9187C20.4741 9.04526 18.6441 7.82304 16.6749 8.02338C15.872 6.18876 14.0353 5 12.0036 5C9.97194 5 8.13523 6.18876 7.33233 8.02338C5.36409 7.82445 3.53567 9.04645 3 10.9188C2.46433 12.7912 3.37676 14.7709 5.16195 15.6097C5.57996 15.8076 5.90134 16.1945 5.90134 16.6504V22.0002C5.90134 22.5524 6.35669 23 6.91839 23H17.0889Z" stroke="#E63946" stroke-width="2" stroke-linecap="round" stroke-linejoin="round"/>
<path d="M6 19H18" stroke="#E63946" stroke-width="2" stroke-linecap="round" stroke-linejoin="round"/>
<path d="M36.6 6.96V15.36C36.6 16.2 36.8067 16.8467 37.22 17.3C37.6333 17.7533 38.24 17.98 39.04 17.98C39.84 17.98 40.4533 17.7533 40.88 17.3C41.3067 16.8467 41.52 16.2 41.52 15.36V6.96H44.94V15.34C44.94 16.5933 44.6733 17.6533 44.14 18.52C43.6067 19.3867 42.8867 20.04 41.98 20.48C41.0867 20.92 40.0867 21.14 38.98 21.14C37.8733 21.14 36.88 20.9267 36 20.5C35.1333 20.06 34.4467 19.4067 33.94 18.54C33.4333 17.66 33.18 16.5933 33.18 15.34V6.96H36.6ZM50.0416 18.18H54.8816V21H46.2216V18.28L50.8616 12.66H46.2616V9.84H54.7816V12.56L50.0416 18.18ZM59.4634 18.18H64.3034V21H55.6434V18.28L60.2834 12.66H55.6834V9.84H64.2034V12.56L59.4634 18.18ZM67.4053 8.68C66.8053 8.68 66.312 8.50667 65.9253 8.16C65.552 7.8 65.3653 7.36 65.3653 6.84C65.3653 6.30667 65.552 5.86667 65.9253 5.52C66.312 5.16 66.8053 4.98 67.4053 4.98C67.992 4.98 68.472 5.16 68.8453 5.52C69.232 5.86667 69.4253 6.30667 69.4253 6.84C69.4253 7.36 69.232 7.8 68.8453 8.16C68.472 8.50667 67.992 8.68 67.4053 8.68ZM69.1053 9.84V21H65.6853V9.84H69.1053ZM83.322 13.8C84.1354 13.9733 84.7887 14.38 85.282 15.02C85.7754 15.6467 86.022 16.3667 86.022 17.18C86.022 18.3533 85.6087 19.2867 84.782 19.98C83.9687 20.66 82.8287 21 81.362 21H74.822V6.96H81.142C82.5687 6.96 83.682 7.28667 84.482 7.94C85.2954 8.59333 85.702 9.48 85.702 10.6C85.702 11.4267 85.482 12.1133 85.042 12.66C84.6154 13.2067 84.042 13.5867 83.322 13.8ZM78.242 12.64H80.482C81.042 12.64 81.4687 12.52 81.762 12.28C82.0687 12.0267 82.222 11.66 82.222 11.18C82.222 10.7 82.0687 10.3333 81.762 10.08C81.4687 9.82667 81.042 9.7 80.482 9.7H78.242V12.64ZM80.762 18.24C81.3354 18.24 81.7754 18.1133 82.082 17.86C82.402 17.5933 82.562 17.2133 82.562 16.72C82.562 16.2267 82.3954 15.84 82.062 15.56C81.742 15.28 81.2954 15.14 80.722 15.14H78.242V18.24H80.762ZM89.2256 8.68C88.6256 8.68 88.1323 8.50667 87.7456 8.16C87.3723 7.8 87.1856 7.36 87.1856 6.84C87.1856 6.30667 87.3723 5.86667 87.7456 5.52C88.1323 5.16 88.6256 4.98 89.2256 4.98C89.8123 4.98 90.2923 5.16 90.6656 5.52C91.0523 5.86667 91.2456 6.30667 91.2456 6.84C91.2456 7.36 91.0523 7.8 90.6656 8.16C90.2923 8.50667 89.8123 8.68 89.2256 8.68ZM90.9256 9.84V21H87.5056V9.84H90.9256ZM99.1241 18.1V21H97.3841C96.1441 21 95.1774 20.7 94.4841 20.1C93.7907 19.4867 93.4441 18.4933 93.4441 17.12V12.68H92.0841V9.84H93.4441V7.12H96.8641V9.84H99.1041V12.68H96.8641V17.16C96.8641 17.4933 96.9441 17.7333 97.1041 17.88C97.2641 18.0267 97.5307 18.1 97.9041 18.1H99.1241ZM111.049 15.24C111.049 15.56 111.029 15.8933 110.989 16.24H103.249C103.302 16.9333 103.522 17.4667 103.909 17.84C104.309 18.2 104.796 18.38 105.369 18.38C106.222 18.38 106.816 18.02 107.149 17.3H110.789C110.602 18.0333 110.262 18.6933 109.769 19.28C109.289 19.8667 108.682 20.3267 107.949 20.66C107.216 20.9933 106.396 21.16 105.489 21.16C104.396 21.16 103.422 20.9267 102.569 20.46C101.716 19.9933 101.049 19.3267 100.569 18.46C100.089 17.5933 99.8491 16.58 99.8491 15.42C99.8491 14.26 100.082 13.2467 100.549 12.38C101.029 11.5133 101.696 10.8467 102.549 10.38C103.402 9.91333 104.382 9.68 105.489 9.68C106.569 9.68 107.529 9.90667 108.369 10.36C109.209 10.8133 109.862 11.46 110.329 12.3C110.809 13.14 111.049 14.12 111.049 15.24ZM107.549 14.34C107.549 13.7533 107.349 13.2867 106.949 12.94C106.549 12.5933 106.049 12.42 105.449 12.42C104.876 12.42 104.389 12.5867 103.989 12.92C103.602 13.2533 103.362 13.7267 103.269 14.34H107.549ZM115.553 18.18H120.393V21H111.733V18.28L116.373 12.66H111.773V9.84H120.293V12.56L115.553 18.18Z" fill="white"/>
</svg>
