<svg width="64" height="64" viewBox="0 0 64 64" fill="none" xmlns="http://www.w3.org/2000/svg">
<rect width="64" height="64" rx="32" fill="#FBF9FA"/>
<path d="M40.4762 47.0002C41.4122 47.0002 42.1709 46.254 42.1709 45.3334V36.4158C42.1709 35.654 42.7064 35.0089 43.403 34.6806C46.3803 33.2836 47.903 29.9814 47.01 26.858C46.117 23.7346 43.0677 21.6969 39.7865 22.0309C38.4486 18.9722 35.3881 16.9902 32.0027 16.9902C28.6173 16.9902 25.5568 18.9722 24.2189 22.0309C20.9393 21.6992 17.8926 23.7366 17 26.8582C16.1074 29.9799 17.6278 33.2805 20.6025 34.6789C21.299 35.0089 21.8345 35.654 21.8345 36.4141V45.3334C21.8345 46.254 22.5932 47.0002 23.5292 47.0002H40.4762Z" stroke="#E63946" stroke-width="2" stroke-linecap="round" stroke-linejoin="round"/>
<path d="M22 40.3301H42" stroke="#E63946" stroke-width="2" stroke-linecap="round" stroke-linejoin="round"/>
</svg>
