<svg width="125" height="28" viewBox="0 0 125 28" fill="none" xmlns="http://www.w3.org/2000/svg">
<path d="M17.0889 23C17.6506 23 18.1059 22.5524 18.1059 22.0002V16.6514C18.1059 16.1945 18.4273 15.8076 18.8453 15.6107C20.6321 14.7728 21.5459 12.7921 21.01 10.9187C20.4741 9.04526 18.6441 7.82304 16.6749 8.02338C15.872 6.18876 14.0353 5 12.0036 5C9.97194 5 8.13523 6.18876 7.33233 8.02338C5.36409 7.82445 3.53567 9.04645 3 10.9188C2.46433 12.7912 3.37676 14.7709 5.16195 15.6097C5.57996 15.8076 5.90134 16.1945 5.90134 16.6504V22.0002C5.90134 22.5524 6.35669 23 6.91839 23H17.0889Z" stroke="#E63946" stroke-width="2" stroke-linecap="round" stroke-linejoin="round"/>
<path d="M6 19H18" stroke="#E63946" stroke-width="2" stroke-linecap="round" stroke-linejoin="round"/>
<path d="M33.18 5.96H36.6V14.36C36.6 15.2 36.8067 15.8467 37.22 16.3C37.6333 16.7533 38.24 16.98 39.04 16.98C39.84 16.98 40.4533 16.7533 40.88 16.3C41.3067 15.8467 41.52 15.2 41.52 14.36V5.96H44.94V14.34C44.94 15.5933 44.6733 16.6533 44.14 17.52C43.6067 18.3867 42.89 19.04 41.99 19.48C41.09 19.92 40.0867 20.14 38.98 20.14C37.8733 20.14 36.8833 19.9233 36.01 19.49C35.1367 19.0567 34.4467 18.4033 33.94 17.53C33.4333 16.6567 33.18 15.5933 33.18 14.34V5.96ZM55.28 11.56L50.54 17.18H55.38V20H46.72V17.28L51.36 11.66H46.76V8.84H55.28V11.56ZM65.2 11.56L60.46 17.18H65.3V20H56.64V17.28L61.28 11.66H56.68V8.84H65.2V11.56ZM68.9 7.68C68.3 7.68 67.81 7.50333 67.43 7.15C67.05 6.79667 66.86 6.36 66.86 5.84C66.86 5.30667 67.05 4.86333 67.43 4.51C67.81 4.15667 68.3 3.98 68.9 3.98C69.4867 3.98 69.97 4.15667 70.35 4.51C70.73 4.86333 70.92 5.30667 70.92 5.84C70.92 6.36 70.73 6.79667 70.35 7.15C69.97 7.50333 69.4867 7.68 68.9 7.68ZM67.18 8.84H70.6V20H67.18V8.84ZM85.82 12.8C86.6333 12.9733 87.2867 13.3767 87.78 14.01C88.2733 14.6433 88.52 15.3667 88.52 16.18C88.52 17.3533 88.11 18.2833 87.29 18.97C86.47 19.6567 85.3267 20 83.86 20H77.32V5.96H83.64C85.0667 5.96 86.1833 6.28667 86.99 6.94C87.7967 7.59333 88.2 8.48 88.2 9.6C88.2 10.4267 87.9833 11.1133 87.55 11.66C87.1167 12.2067 86.54 12.5867 85.82 12.8ZM80.74 8.7V11.64H82.98C83.54 11.64 83.97 11.5167 84.27 11.27C84.57 11.0233 84.72 10.66 84.72 10.18C84.72 9.7 84.57 9.33333 84.27 9.08C83.97 8.82667 83.54 8.7 82.98 8.7H80.74ZM83.26 17.24C83.8333 17.24 84.2767 17.11 84.59 16.85C84.9033 16.59 85.06 16.2133 85.06 15.72C85.06 15.2267 84.8967 14.84 84.57 14.56C84.2433 14.28 83.7933 14.14 83.22 14.14H80.74V17.24H83.26ZM92.22 7.68C91.62 7.68 91.13 7.50333 90.75 7.15C90.37 6.79667 90.18 6.36 90.18 5.84C90.18 5.30667 90.37 4.86333 90.75 4.51C91.13 4.15667 91.62 3.98 92.22 3.98C92.8067 3.98 93.29 4.15667 93.67 4.51C94.05 4.86333 94.24 5.30667 94.24 5.84C94.24 6.36 94.05 6.79667 93.67 7.15C93.29 7.50333 92.8067 7.68 92.22 7.68ZM90.5 8.84H93.92V20H90.5V8.84ZM101.4 17.1H102.62V20H100.88C99.64 20 98.6733 19.6967 97.98 19.09C97.2867 18.4833 96.94 17.4933 96.94 16.12V11.68H95.58V8.84H96.94V6.12H100.36V8.84H102.6V11.68H100.36V16.16C100.36 16.4933 100.44 16.7333 100.6 16.88C100.76 17.0267 101.027 17.1 101.4 17.1ZM115.04 14.24C115.04 14.56 115.02 14.8933 114.98 15.24H107.24C107.293 15.9333 107.517 16.4633 107.91 16.83C108.303 17.1967 108.787 17.38 109.36 17.38C110.213 17.38 110.807 17.02 111.14 16.3H114.78C114.593 17.0333 114.257 17.6933 113.77 18.28C113.283 18.8667 112.673 19.3267 111.94 19.66C111.207 19.9933 110.387 20.16 109.48 20.16C108.387 20.16 107.413 19.9267 106.56 19.46C105.707 18.9933 105.04 18.3267 104.56 17.46C104.08 16.5933 103.84 15.58 103.84 14.42C103.84 13.26 104.077 12.2467 104.55 11.38C105.023 10.5133 105.687 9.84667 106.54 9.38C107.393 8.91333 108.373 8.68 109.48 8.68C110.56 8.68 111.52 8.90667 112.36 9.36C113.2 9.81333 113.857 10.46 114.33 11.3C114.803 12.14 115.04 13.12 115.04 14.24ZM107.26 13.34H111.54C111.54 12.7533 111.34 12.2867 110.94 11.94C110.54 11.5933 110.04 11.42 109.44 11.42C108.867 11.42 108.383 11.5867 107.99 11.92C107.597 12.2533 107.353 12.7267 107.26 13.34ZM124.78 11.56L120.04 17.18H124.88V20H116.22V17.28L120.86 11.66H116.26V8.84H124.78V11.56Z" fill="#222222"/>
</svg>
